<?xml version="1.0" standalone="no"?>
<!DOCTYPE svg PUBLIC "-//W3C//DTD SVG 20010904//EN"
 "http://www.w3.org/TR/2001/REC-SVG-20010904/DTD/svg10.dtd">
<svg version="1.0" xmlns="http://www.w3.org/2000/svg"
 width="48.000000pt" height="48.000000pt" viewBox="0 0 48.000000 48.000000"
 preserveAspectRatio="xMidYMid meet">

<g transform="translate(0.000000,48.000000) scale(0.100000,-0.100000)"
fill="#000000" stroke="none">
<path d="M107 412 c-14 -16 -17 -43 -17 -174 0 -196 -7 -188 152 -188 150 0
148 -2 148 147 l0 110 -64 61 -64 62 -70 0 c-54 0 -72 -4 -85 -18z m206 -60
l58 -58 -3 -110 -3 -109 -125 0 -125 0 -3 155 c-1 85 0 160 2 167 4 9 27 13
73 13 l69 0 57 -58z"/>
<path d="M170 240 c0 -6 30 -10 70 -10 40 0 70 4 70 10 0 6 -30 10 -70 10 -40
0 -70 -4 -70 -10z"/>
<path d="M170 160 c0 -6 30 -10 70 -10 40 0 70 4 70 10 0 6 -30 10 -70 10 -40
0 -70 -4 -70 -10z"/>
</g>
</svg>
